<svg width="24" height="24" viewBox="0 0 24 24" fill="none" xmlns="http://www.w3.org/2000/svg">
<g clip-path="url(#clip0_597_946)">
<path d="M17.6393 0C18.2954 0.136011 18.8911 0.392992 19.4102 0.832364C21.3609 2.48455 20.8904 5.75384 18.5518 6.77987C18.4136 6.84255 18.3271 6.81748 18.225 6.71406C16.8009 5.27497 15.3738 3.8384 13.9439 2.40433C13.8194 2.28211 13.8194 2.18057 13.8897 2.03453C14.4242 0.933902 15.2873 0.265338 16.4791 0.0288332C16.5091 0.021543 16.5386 0.0123314 16.5675 0.00125478L17.6393 0Z" fill="white"/>
<path d="M3.00307 18.0149C3.00307 17.1374 3.32238 16.3853 3.92367 15.7585C4.10106 15.5704 4.27784 15.3824 4.46893 15.2132C4.6177 15.0797 4.63699 14.9844 4.47578 14.8409C4.24921 14.639 4.04815 14.4096 3.82905 14.199C3.72946 14.1031 3.72946 14.0311 3.81972 13.9239C5.35508 12.1 6.89045 10.2746 8.42582 8.44772C8.62625 8.20892 8.84224 7.9814 9.02462 7.73006C9.16653 7.53513 9.25804 7.5765 9.40182 7.72317C10.2365 8.5737 11.0793 9.41547 11.919 10.2629C12.2651 10.6114 12.6037 10.9649 12.9597 11.3046C13.0992 11.4387 13.1085 11.5221 12.9535 11.6537C11.4024 12.9662 9.85434 14.2824 8.30942 15.6024C7.81707 16.0211 7.32222 16.4373 6.83796 16.8641C6.68857 16.9957 6.58898 16.997 6.45453 16.8459C6.24726 16.6134 6.01882 16.4009 5.7991 16.179C5.74246 16.122 5.69017 16.06 5.60863 16.1483C5.32853 16.4504 4.99739 16.7062 4.76272 17.0503C4.52323 17.4018 4.42101 17.83 4.47569 18.2527C4.53037 18.6755 4.73809 19.063 5.05902 19.3411C5.37996 19.6191 5.79151 19.7681 6.21479 19.7594C6.63807 19.7508 7.04327 19.5851 7.35272 19.2941C7.78844 18.8805 8.19365 18.438 8.62625 18.0237C9.43543 17.2515 10.384 16.9732 11.4565 17.2985C12.529 17.6238 13.2093 18.3784 13.4253 19.4922C13.6071 20.4324 13.3674 21.2835 12.7095 21.9818C12.0871 22.6399 11.4385 23.2667 10.8054 23.9122C10.6946 24.0244 10.6187 24.0376 10.5011 23.9173C10.2608 23.6615 10.0137 23.4129 9.75973 23.1714C9.63897 23.0561 9.65329 22.9777 9.76533 22.8661C10.384 22.2513 11.0028 21.6358 11.6103 21.009C12.2551 20.3427 12.1238 19.3167 11.3457 18.836C10.811 18.5082 10.1394 18.5953 9.6564 19.0672C9.24496 19.4709 8.84722 19.8896 8.43516 20.292C7.53759 21.1651 6.46698 21.444 5.2806 21.0955C4.09421 20.747 3.3672 19.9228 3.0734 18.7137C3.0428 18.5845 3.02055 18.4535 3.0068 18.3214C2.99498 18.2192 3.00307 18.1189 3.00307 18.0149Z" fill="white"/>
<path d="M18.5879 9.05445C18.5583 9.09499 18.5265 9.13391 18.4927 9.17103C17.5819 10.0903 16.6714 11.0096 15.7614 11.9289C15.6413 12.0511 15.5672 12.0285 15.4583 11.9188C13.2291 9.67037 10.9993 7.42525 8.76884 5.18347C8.65555 5.06939 8.64932 4.99543 8.7651 4.87697C9.67429 3.96814 10.5797 3.05555 11.4815 2.1392C11.6452 1.97185 11.7261 2.07652 11.8356 2.18621C13.564 3.92824 15.2929 5.66964 17.0225 7.41041C17.5005 7.89136 17.9777 8.37189 18.4541 8.85201C18.5076 8.90528 18.5805 8.95041 18.5879 9.05445ZM12.6373 5.10073C12.6031 5.12264 12.5705 5.14693 12.5396 5.17344C12.2863 5.42415 12.0361 5.68363 11.7809 5.93497C11.675 6.03839 11.7553 6.09794 11.8213 6.16438C12.7048 7.0544 13.5878 7.94485 14.4704 8.83571C14.5887 8.95605 14.6678 8.94289 14.7755 8.82881C14.9829 8.60777 15.1971 8.39216 15.4178 8.18198C15.5348 8.07104 15.5348 7.99018 15.4178 7.87423C14.531 6.98796 13.6465 6.09898 12.7643 5.20728C12.7251 5.16968 12.6809 5.13896 12.6342 5.10073H12.6373Z" fill="white"/>
</g>
<defs>
<clipPath id="clip0_597_946">
<rect width="17.6283" height="24" fill="white" transform="translate(3)"/>
</clipPath>
</defs>
</svg>
