<svg width="49" height="48" viewBox="0 0 49 48" fill="none" xmlns="http://www.w3.org/2000/svg">
<circle cx="24.5" cy="24" r="24" fill="#287045"/>
<g clip-path="url(#clip0_590_2718)">
<path d="M31.0969 36H17.9037C17.6744 35.9569 17.4431 35.9231 17.2162 35.87C14.3487 35.2 12.4844 32.6069 12.5 29.9269C12.5231 25.9675 12.5056 22.0075 12.5062 18.0481C12.5012 17.7975 12.5143 17.5468 12.5456 17.2981C12.8337 15.3156 13.8425 13.8175 15.55 12.7869C16.2612 12.3575 17.0444 12.1319 17.8569 11.9975H31.0969C31.1263 12.0074 31.1564 12.0156 31.1868 12.0219C32.9575 12.2656 34.3575 13.1275 35.3987 14.5762C36.0037 15.4169 36.3362 16.3669 36.4769 17.3887V30.6094C36.4669 30.655 36.455 30.7 36.4481 30.7462C36.1356 32.7694 35.0806 34.2819 33.3081 35.2912C32.6225 35.6819 31.8731 35.8906 31.0969 36ZM34.7844 24.0087V18.2219C34.7882 17.9332 34.7717 17.6445 34.735 17.3581C34.4537 15.3787 32.6019 13.7125 30.61 13.7056C26.5412 13.6906 22.4725 13.7012 18.4031 13.7C18.1774 13.7033 17.9525 13.7291 17.7319 13.7769C15.6412 14.1937 14.205 16.0825 14.2156 18.0975C14.2362 22.035 14.2218 25.9725 14.2218 29.9062C14.2206 30.1559 14.2375 30.4053 14.2725 30.6525C14.5631 32.6344 16.4125 34.2881 18.4075 34.295C22.47 34.3087 26.5325 34.2987 30.5912 34.3C30.8171 34.2978 31.0422 34.2729 31.2631 34.2256C32.2612 34.0222 33.158 33.479 33.8005 32.6885C34.443 31.8981 34.7916 30.9093 34.7868 29.8906C34.7625 27.93 34.7819 25.9694 34.7819 24.0087H34.7844Z" fill="white"/>
<path d="M30.5981 24.0119C30.5948 25.6307 29.9493 27.182 28.8033 28.3253C27.6573 29.4686 26.1044 30.1105 24.4856 30.11C21.1156 30.11 18.3975 27.36 18.4019 23.9625C18.4069 20.6044 21.1519 17.885 24.5362 17.89C27.8806 17.895 30.6006 20.6406 30.5981 24.0119ZM20.1175 23.99C20.1175 26.4125 22.0706 28.3869 24.4719 28.3906C26.9094 28.3938 28.8787 26.4394 28.8812 24.0219C28.8812 21.5844 26.9281 19.6113 24.5144 19.6094C23.9378 19.6077 23.3666 19.7197 22.8335 19.939C22.3003 20.1583 21.8156 20.4807 21.4072 20.8876C20.9988 21.2945 20.6746 21.778 20.4533 22.3103C20.232 22.8427 20.1179 23.4135 20.1175 23.99Z" fill="white"/>
<path d="M31.305 14.9825C32.5412 14.9825 33.4993 15.9513 33.4981 17.2C33.4995 17.4909 33.4434 17.7792 33.3332 18.0483C33.2229 18.3175 33.0605 18.5622 32.8554 18.7685C32.6503 18.9747 32.4065 19.1385 32.138 19.2503C31.8694 19.3621 31.5815 19.4198 31.2906 19.42C30.703 19.4146 30.1411 19.1788 29.7257 18.7632C29.3102 18.3477 29.0746 17.7857 29.0693 17.1981C29.0687 16.9053 29.1262 16.6152 29.2385 16.3448C29.3509 16.0744 29.5159 15.829 29.7239 15.6228C29.9319 15.4167 30.1787 15.2539 30.4502 15.144C30.7216 15.0341 31.0121 14.9792 31.305 14.9825ZM31.7825 17.1944C31.785 17.128 31.7737 17.0619 31.7491 17.0002C31.7246 16.9386 31.6873 16.8827 31.6399 16.8363C31.5924 16.7899 31.5358 16.754 31.4736 16.7308C31.4113 16.7077 31.345 16.6978 31.2787 16.7019C31.1489 16.7041 31.0251 16.7568 30.9334 16.8487C30.8417 16.9406 30.7894 17.0646 30.7875 17.1944C30.7945 17.3277 30.8513 17.4535 30.9466 17.547C31.042 17.6404 31.169 17.6945 31.3025 17.6988C31.4327 17.694 31.5559 17.6387 31.6459 17.5445C31.7359 17.4503 31.7856 17.3247 31.7843 17.1944H31.7825Z" fill="white"/>
</g>
<defs>
<clipPath id="clip0_590_2718">
<rect width="23.9769" height="24" fill="white" transform="translate(12.5 12)"/>
</clipPath>
</defs>
</svg>
