<svg width="24" height="24" viewBox="0 0 24 24" fill="none" xmlns="http://www.w3.org/2000/svg">
<g clip-path="url(#clip0_597_933)">
<path d="M17.6393 0C18.2954 0.136011 18.8911 0.392992 19.4102 0.832364C21.3609 2.48455 20.8904 5.75384 18.5518 6.77987C18.4137 6.84255 18.3271 6.81748 18.2251 6.71406C16.8009 5.27497 15.3738 3.8384 13.9439 2.40433C13.8194 2.28211 13.8194 2.18057 13.8897 2.03453C14.4242 0.933902 15.2873 0.265338 16.4791 0.0288332C16.5091 0.021543 16.5386 0.0123314 16.5675 0.00125478L17.6393 0Z" fill="#505050"/>
<path d="M3.00312 18.0149C3.00312 17.1374 3.32244 16.3853 3.92372 15.7585C4.10112 15.5704 4.2779 15.3824 4.46899 15.2132C4.61775 15.0797 4.63705 14.9844 4.47583 14.8409C4.24926 14.639 4.04821 14.4096 3.82911 14.199C3.72952 14.1031 3.72952 14.0311 3.81977 13.9239C5.35514 12.1 6.89051 10.2746 8.42588 8.44772C8.62631 8.20892 8.8423 7.9814 9.02467 7.73006C9.16659 7.53513 9.25809 7.5765 9.40188 7.72317C10.2366 8.5737 11.0794 9.41547 11.9191 10.2629C12.2651 10.6114 12.6037 10.9649 12.9598 11.3046C13.0992 11.4387 13.1085 11.5221 12.9536 11.6537C11.4024 12.9662 9.8544 14.2824 8.30948 15.6024C7.81713 16.0211 7.32228 16.4373 6.83802 16.8641C6.68863 16.9957 6.58904 16.997 6.45459 16.8459C6.24731 16.6134 6.01888 16.4009 5.79916 16.179C5.74251 16.122 5.69022 16.06 5.60868 16.1483C5.32858 16.4504 4.99744 16.7062 4.76278 17.0503C4.52328 17.4018 4.42107 17.83 4.47575 18.2527C4.53043 18.6755 4.73815 19.063 5.05908 19.3411C5.38001 19.6191 5.79157 19.7681 6.21485 19.7594C6.63813 19.7508 7.04333 19.5851 7.35278 19.2941C7.78849 18.8805 8.19371 18.438 8.62631 18.0237C9.43549 17.2515 10.3841 16.9732 11.4566 17.2985C12.5291 17.6238 13.2094 18.3784 13.4254 19.4922C13.6071 20.4324 13.3675 21.2835 12.7096 21.9818C12.0871 22.6399 11.4385 23.2667 10.8055 23.9122C10.6947 24.0244 10.6188 24.0376 10.5011 23.9173C10.2609 23.6615 10.0137 23.4129 9.75979 23.1714C9.63903 23.0561 9.65335 22.9777 9.76539 22.8661C10.3841 22.2513 11.0028 21.6358 11.6103 21.009C12.2552 20.3427 12.1238 19.3167 11.3458 18.836C10.8111 18.5082 10.1395 18.5953 9.65646 19.0672C9.24502 19.4709 8.84728 19.8896 8.43522 20.292C7.53765 21.1651 6.46704 21.444 5.28065 21.0955C4.09427 20.747 3.36725 19.9228 3.07346 18.7137C3.04286 18.5845 3.02061 18.4535 3.00686 18.3214C2.99503 18.2192 3.00312 18.1189 3.00312 18.0149Z" fill="#505050"/>
<path d="M18.5879 9.05445C18.5583 9.09499 18.5265 9.13391 18.4927 9.17103C17.5819 10.0903 16.6714 11.0096 15.7614 11.9289C15.6413 12.0511 15.5672 12.0285 15.4583 11.9188C13.2291 9.67037 10.9993 7.42525 8.76884 5.18347C8.65556 5.06939 8.64933 4.99543 8.7651 4.87697C9.67429 3.96814 10.5797 3.05555 11.4815 2.1392C11.6452 1.97185 11.7261 2.07652 11.8356 2.18621C13.564 3.92824 15.2929 5.66964 17.0225 7.41041C17.5005 7.89136 17.9777 8.37189 18.4541 8.85201C18.5076 8.90528 18.5805 8.95041 18.5879 9.05445ZM12.6374 5.10073C12.6031 5.12264 12.5705 5.14693 12.5396 5.17344C12.2863 5.42415 12.0361 5.68363 11.7809 5.93497C11.675 6.03839 11.7553 6.09794 11.8213 6.16438C12.7048 7.0544 13.5878 7.94485 14.4705 8.83571C14.5887 8.95605 14.6678 8.94289 14.7755 8.82881C14.9829 8.60777 15.1971 8.39216 15.4178 8.18198C15.5348 8.07104 15.5348 7.99018 15.4178 7.87423C14.531 6.98796 13.6465 6.09898 12.7643 5.20728C12.7251 5.16968 12.6809 5.13896 12.6342 5.10073H12.6374Z" fill="#505050"/>
</g>
<defs>
<clipPath id="clip0_597_933">
<rect width="17.6283" height="24" fill="white" transform="translate(3)"/>
</clipPath>
</defs>
</svg>
