<svg width="48" height="48" viewBox="0 0 48 48" fill="none" xmlns="http://www.w3.org/2000/svg">
<circle cx="24" cy="24" r="24" fill="#287045"/>
<path d="M33 22.69H30.11C27.74 22.69 25.81 20.76 25.81 18.39V15.5C25.81 14.95 25.36 14.5 24.81 14.5H20.57C17.49 14.5 15 16.5 15 20.07V28.93C15 32.5 17.49 34.5 20.57 34.5H28.43C31.51 34.5 34 32.5 34 28.93V23.69C34 23.14 33.55 22.69 33 22.69Z" fill="white"/>
<path d="M28.3001 14.71C27.8901 14.3 27.1801 14.58 27.1801 15.15V18.64C27.1801 20.1 28.4201 21.31 29.9301 21.31C30.8801 21.32 32.2001 21.32 33.3301 21.32C33.9001 21.32 34.2001 20.65 33.8001 20.25C32.3601 18.8 29.7801 16.19 28.3001 14.71Z" fill="white"/>
<path d="M26 26.25H20C19.59 26.25 19.25 25.91 19.25 25.5C19.25 25.09 19.59 24.75 20 24.75H26C26.41 24.75 26.75 25.09 26.75 25.5C26.75 25.91 26.41 26.25 26 26.25Z" fill="#287045"/>
<path d="M24 30.25H20C19.59 30.25 19.25 29.91 19.25 29.5C19.25 29.09 19.59 28.75 20 28.75H24C24.41 28.75 24.75 29.09 24.75 29.5C24.75 29.91 24.41 30.25 24 30.25Z" fill="#287045"/>
</svg>
