<svg width="48" height="48" viewBox="0 0 48 48" fill="none" xmlns="http://www.w3.org/2000/svg">
<circle cx="24" cy="24" r="24" fill="#287045"/>
<g clip-path="url(#clip0_590_2800)">
<path d="M30.448 12.5C31.1179 12.636 31.7261 12.893 32.2562 13.3324C34.2481 14.9846 33.7676 18.2538 31.3798 19.2799C31.2387 19.3426 31.1503 19.3175 31.0461 19.2141C29.5919 17.775 28.1347 16.3384 26.6746 14.9043C26.5475 14.7821 26.5475 14.6806 26.6193 14.5345C27.1651 13.4339 28.0464 12.7653 29.2633 12.5288C29.294 12.5215 29.3241 12.5123 29.3536 12.5013L30.448 12.5Z" fill="white"/>
<path d="M15.5031 30.5149C15.5031 29.6374 15.8292 28.8853 16.4431 28.2585C16.6243 28.0705 16.8048 27.8824 16.9999 27.7132C17.1518 27.5797 17.1715 27.4844 17.0069 27.3409C16.7755 27.1391 16.5702 26.9097 16.3465 26.6991C16.2448 26.6032 16.2448 26.5311 16.337 26.4239C17.9047 24.6 19.4725 22.7746 21.0402 20.9477C21.2449 20.7089 21.4654 20.4814 21.6516 20.2301C21.7965 20.0351 21.89 20.0765 22.0368 20.2232C22.8891 21.0737 23.7497 21.9155 24.607 22.7629C24.9604 23.1114 25.3062 23.4649 25.6697 23.8046C25.8121 23.9387 25.8216 24.0221 25.6634 24.1537C24.0795 25.4662 22.4988 26.7824 20.9214 28.1024C20.4186 28.5211 19.9133 28.9373 19.4189 29.3641C19.2663 29.4958 19.1646 29.497 19.0274 29.3459C18.8157 29.1134 18.5825 28.9009 18.3581 28.6791C18.3003 28.622 18.2469 28.56 18.1636 28.6483C17.8776 28.9505 17.5395 29.2062 17.2999 29.5503C17.0553 29.9018 16.951 30.33 17.0068 30.7528C17.0626 31.1755 17.2747 31.563 17.6024 31.8411C17.9301 32.1191 18.3504 32.2681 18.7826 32.2594C19.2148 32.2508 19.6285 32.0851 19.9445 31.7942C20.3894 31.3805 20.8031 30.938 21.2449 30.5237C22.0711 29.7515 23.0397 29.4732 24.1348 29.7985C25.2299 30.1238 25.9246 30.8784 26.1451 31.9922C26.3307 32.9324 26.086 33.7835 25.4142 34.4818C24.7786 35.1399 24.1164 35.7667 23.47 36.4123C23.3569 36.5245 23.2793 36.5376 23.1592 36.4173C22.9139 36.1615 22.6616 35.9129 22.4022 35.6714C22.2789 35.5561 22.2936 35.4777 22.408 35.3662C23.0397 34.7513 23.6715 34.1358 24.2918 33.509C24.9502 32.8428 24.8161 31.8167 24.0217 31.336C23.4757 31.0082 22.7899 31.0953 22.2967 31.5673C21.8766 31.9709 21.4705 32.3896 21.0497 32.792C20.1333 33.6651 19.0401 33.944 17.8287 33.5955C16.6173 33.247 15.8749 32.4228 15.5749 31.2138C15.5437 31.0846 15.521 30.9535 15.5069 30.8214C15.4949 30.7192 15.5031 30.6189 15.5031 30.5149Z" fill="white"/>
<path d="M31.4166 21.5545C31.3863 21.595 31.3538 21.6339 31.3193 21.671C30.3893 22.5903 29.4596 23.5096 28.5304 24.4289C28.4078 24.5511 28.3321 24.5285 28.2209 24.4188C25.9447 22.1704 23.6679 19.9252 21.3904 17.6835C21.2748 17.5694 21.2684 17.4954 21.3866 17.377C22.315 16.4681 23.2395 15.5555 24.1603 14.6392C24.3274 14.4718 24.41 14.5765 24.5219 14.6862C26.2867 16.4282 28.0521 18.1696 29.8181 19.9104C30.3062 20.3914 30.7935 20.8719 31.2799 21.352C31.3346 21.4053 31.4089 21.4504 31.4166 21.5545ZM25.3405 17.6007C25.3056 17.6226 25.2722 17.6469 25.2407 17.6734C24.982 17.9241 24.7266 18.1836 24.466 18.435C24.3579 18.5384 24.4399 18.5979 24.5073 18.6644C25.4094 19.5544 26.311 20.4448 27.2123 21.3357C27.333 21.456 27.4137 21.4429 27.5237 21.3288C27.7356 21.1078 27.9542 20.8922 28.1796 20.682C28.2991 20.571 28.2991 20.4902 28.1796 20.3742C27.2741 19.488 26.371 18.599 25.4702 17.7073C25.4301 17.6697 25.385 17.639 25.3373 17.6007H25.3405Z" fill="white"/>
</g>
<defs>
<clipPath id="clip0_590_2800">
<rect width="18" height="24" fill="white" transform="translate(15.5 12.5)"/>
</clipPath>
</defs>
</svg>
