<svg width="32" height="32" viewBox="0 0 32 32" fill="none" xmlns="http://www.w3.org/2000/svg">
<rect width="32" height="32" rx="6" fill="url(#paint0_linear_597_232)"/>
<mask id="mask0_597_232" style="mask-type:alpha" maskUnits="userSpaceOnUse" x="4" y="4" width="24" height="24">
<rect x="4" y="4" width="24" height="24" fill="#D9D9D9"/>
</mask>
<g mask="url(#mask0_597_232)">
<path d="M16 26C14.6333 26 13.3417 25.7375 12.125 25.2125C10.9083 24.6875 9.84583 23.9708 8.9375 23.0625C8.02917 22.1542 7.3125 21.0917 6.7875 19.875C6.2625 18.6583 6 17.3667 6 16C6 14.6167 6.2625 13.3208 6.7875 12.1125C7.3125 10.9042 8.02917 9.84583 8.9375 8.9375C9.84583 8.02917 10.9083 7.3125 12.125 6.7875C13.3417 6.2625 14.6333 6 16 6C17.3833 6 18.6792 6.2625 19.8875 6.7875C21.0958 7.3125 22.1542 8.02917 23.0625 8.9375C23.9708 9.84583 24.6875 10.9042 25.2125 12.1125C25.7375 13.3208 26 14.6167 26 16C26 17.3667 25.7375 18.6583 25.2125 19.875C24.6875 21.0917 23.9708 22.1542 23.0625 23.0625C22.1542 23.9708 21.0958 24.6875 19.8875 25.2125C18.6792 25.7375 17.3833 26 16 26ZM16 23.95C16.4333 23.35 16.8083 22.725 17.125 22.075C17.4417 21.425 17.7 20.7333 17.9 20H14.1C14.3 20.7333 14.5583 21.425 14.875 22.075C15.1917 22.725 15.5667 23.35 16 23.95ZM13.4 23.55C13.1 23 12.8375 22.4292 12.6125 21.8375C12.3875 21.2458 12.2 20.6333 12.05 20H9.1C9.58333 20.8333 10.1875 21.5583 10.9125 22.175C11.6375 22.7917 12.4667 23.25 13.4 23.55ZM18.6 23.55C19.5333 23.25 20.3625 22.7917 21.0875 22.175C21.8125 21.5583 22.4167 20.8333 22.9 20H19.95C19.8 20.6333 19.6125 21.2458 19.3875 21.8375C19.1625 22.4292 18.9 23 18.6 23.55ZM8.25 18H11.65C11.6 17.6667 11.5625 17.3375 11.5375 17.0125C11.5125 16.6875 11.5 16.35 11.5 16C11.5 15.65 11.5125 15.3125 11.5375 14.9875C11.5625 14.6625 11.6 14.3333 11.65 14H8.25C8.16667 14.3333 8.10417 14.6625 8.0625 14.9875C8.02083 15.3125 8 15.65 8 16C8 16.35 8.02083 16.6875 8.0625 17.0125C8.10417 17.3375 8.16667 17.6667 8.25 18ZM13.65 18H18.35C18.4 17.6667 18.4375 17.3375 18.4625 17.0125C18.4875 16.6875 18.5 16.35 18.5 16C18.5 15.65 18.4875 15.3125 18.4625 14.9875C18.4375 14.6625 18.4 14.3333 18.35 14H13.65C13.6 14.3333 13.5625 14.6625 13.5375 14.9875C13.5125 15.3125 13.5 15.65 13.5 16C13.5 16.35 13.5125 16.6875 13.5375 17.0125C13.5625 17.3375 13.6 17.6667 13.65 18ZM20.35 18H23.75C23.8333 17.6667 23.8958 17.3375 23.9375 17.0125C23.9792 16.6875 24 16.35 24 16C24 15.65 23.9792 15.3125 23.9375 14.9875C23.8958 14.6625 23.8333 14.3333 23.75 14H20.35C20.4 14.3333 20.4375 14.6625 20.4625 14.9875C20.4875 15.3125 20.5 15.65 20.5 16C20.5 16.35 20.4875 16.6875 20.4625 17.0125C20.4375 17.3375 20.4 17.6667 20.35 18ZM19.95 12H22.9C22.4167 11.1667 21.8125 10.4417 21.0875 9.825C20.3625 9.20833 19.5333 8.75 18.6 8.45C18.9 9 19.1625 9.57083 19.3875 10.1625C19.6125 10.7542 19.8 11.3667 19.95 12ZM14.1 12H17.9C17.7 11.2667 17.4417 10.575 17.125 9.925C16.8083 9.275 16.4333 8.65 16 8.05C15.5667 8.65 15.1917 9.275 14.875 9.925C14.5583 10.575 14.3 11.2667 14.1 12ZM9.1 12H12.05C12.2 11.3667 12.3875 10.7542 12.6125 10.1625C12.8375 9.57083 13.1 9 13.4 8.45C12.4667 8.75 11.6375 9.20833 10.9125 9.825C10.1875 10.4417 9.58333 11.1667 9.1 12Z" fill="white"/>
</g>
<defs>
<linearGradient id="paint0_linear_597_232" x1="0" y1="16" x2="32" y2="16" gradientUnits="userSpaceOnUse">
<stop stop-color="#3991C2"/>
<stop offset="1" stop-color="#1C65B0"/>
</linearGradient>
</defs>
</svg>
