<svg width="32" height="32" viewBox="0 0 32 32" fill="none" xmlns="http://www.w3.org/2000/svg">
<rect width="32" height="32" rx="6" fill="url(#paint0_linear_597_216)"/>
<path d="M16.0137 25.8511C14.4068 25.8338 12.8832 25.4736 11.454 24.7357C11.3942 24.7028 11.3283 24.6823 11.2603 24.6756C11.1922 24.6689 11.1236 24.676 11.0584 24.6966C9.45719 25.1188 7.85523 25.5385 6.25253 25.9556C6.18021 25.9744 6.0909 26.0285 6.0343 25.9809C5.95851 25.9183 6.02895 25.8245 6.04971 25.749C6.47234 24.2051 6.89749 22.6619 7.32516 21.1195C7.34986 21.0416 7.35783 20.9594 7.34857 20.8783C7.3393 20.7972 7.31301 20.7189 7.27139 20.6485C6.55882 19.3366 6.15443 17.938 6.0843 16.4443C5.95978 13.7781 6.77317 11.4358 8.5245 9.41748C9.96881 7.75255 11.7829 6.66848 13.948 6.22972C17.1262 5.58565 19.9919 6.29481 22.4824 8.37127C24.2704 9.86218 25.4019 11.7709 25.8157 14.0558C26.4103 17.3321 25.5641 20.2285 23.306 22.6846C21.7211 24.4086 19.7306 25.4107 17.4086 25.7515C16.9473 25.8237 16.4806 25.857 16.0137 25.8511ZM16.1294 24.1298C16.3395 24.1451 16.6737 24.1138 17.0042 24.0716C19.0168 23.8162 20.7271 22.96 22.0941 21.4666C23.7607 19.6439 24.4626 17.4851 24.2233 15.0369C24.0837 13.6086 23.5755 12.3064 22.7271 11.1409C20.7529 8.42729 17.4948 7.22397 14.3395 7.90215C11.7443 8.46015 9.84272 9.95889 8.63991 12.3148C7.922 13.7231 7.67264 15.2278 7.8371 16.7945C7.96581 18.0693 8.4009 19.2946 9.10563 20.3668C9.21192 20.5296 9.24148 20.6732 9.18456 20.8676C8.94589 21.6856 8.72702 22.5096 8.50281 23.3318C8.43237 23.5906 8.44621 23.6053 8.70092 23.5393C9.56317 23.3167 10.426 23.0961 11.2858 22.8636C11.4638 22.8154 11.6002 22.8426 11.7575 22.9356C13.0612 23.7214 14.4785 24.1173 16.1303 24.1282L16.1294 24.1298Z" fill="white"/>
<path d="M18.5597 20.9985C17.8372 21.0245 17.1915 20.7177 16.5403 20.4463C14.7922 19.7173 13.4796 18.3978 12.3581 16.8269C11.91 16.1991 11.485 15.5528 11.2312 14.7994C10.8 13.52 10.9522 12.3627 11.8551 11.3613C12.0804 11.1113 12.347 10.9918 12.665 11.0004C12.8296 11.0051 12.9939 11.0188 13.1578 11.0338C13.3379 11.0505 13.4414 11.1857 13.5068 11.3429C13.6727 11.7405 13.8248 12.144 13.982 12.5446C14.0936 12.8307 14.199 13.1201 14.3183 13.4021C14.4234 13.6488 14.4079 13.8738 14.2563 14.0891C14.0744 14.3485 13.8989 14.6138 13.7064 14.8639C13.5694 15.0418 13.5515 15.2003 13.6634 15.4043C14.4575 16.8373 15.5596 17.8791 17.0059 18.4923C17.1953 18.5727 17.3484 18.541 17.4838 18.3698C17.7287 18.0603 17.9717 17.7499 18.1967 17.4238C18.3908 17.1444 18.5008 17.1057 18.7959 17.2375C19.4747 17.5406 20.1259 17.9051 20.783 18.2593C20.9937 18.3724 21.0139 18.5714 20.9941 18.7874C20.8735 20.0942 19.9731 20.9774 18.7432 20.9978C18.683 20.9995 18.6214 20.9985 18.5597 20.9985Z" fill="white"/>
<defs>
<linearGradient id="paint0_linear_597_216" x1="0" y1="16" x2="32" y2="16" gradientUnits="userSpaceOnUse">
<stop stop-color="#3991C2"/>
<stop offset="1" stop-color="#1C65B0"/>
</linearGradient>
</defs>
</svg>
