<svg width="48" height="48" viewBox="0 0 48 48" fill="none" xmlns="http://www.w3.org/2000/svg">
<circle cx="24" cy="24" r="24" fill="#287045"/>
<g clip-path="url(#clip0_590_2701)">
<path d="M36 26.7941C35.973 27.2047 35.9414 27.6181 35.9214 28.0304C35.8774 28.9887 35.7455 29.9282 35.352 30.8131C34.8242 32.0124 33.88 32.681 32.6097 32.905C31.8086 33.0463 30.9946 33.0446 30.1865 33.0809C27.958 33.1818 25.7294 33.2569 23.4968 33.2311C22.0389 33.2129 20.5804 33.1812 19.1231 33.1273C18.0956 33.0897 17.0664 33.0686 16.0424 32.9548C15.3011 32.871 14.5763 32.7291 13.9353 32.3191C13.0885 31.7796 12.6381 30.9744 12.3847 30.032C12.2012 29.3482 12.1501 28.6497 12.1009 27.9483C11.9548 25.9649 12.0047 23.9792 12.0229 21.9952C12.0323 20.9507 12.0639 19.901 12.251 18.8682C12.3824 18.1428 12.58 17.4291 13.0169 16.8209C13.6737 15.9067 14.5863 15.4134 15.6982 15.2915C16.5274 15.2006 17.3613 15.1853 18.1941 15.1431C20.7118 15.0158 23.2306 14.9812 25.75 15.0135C26.9815 15.0293 28.2131 15.0469 29.4446 15.1155C30.4862 15.1742 31.5347 15.1554 32.5669 15.3343C33.9961 15.5823 35.0042 16.3559 35.4945 17.7516C35.7766 18.5551 35.8821 19.389 35.9208 20.2353C35.9396 20.6399 35.9724 21.044 35.9994 21.448L36 26.7941ZM24.1243 31.7596C26.1769 31.7561 28.0301 31.7098 29.885 31.6195C30.6861 31.5808 31.4902 31.5673 32.2895 31.4688C33.0114 31.3796 33.5991 31.0518 33.9386 30.3838C34.1839 29.8928 34.337 29.3608 34.3902 28.8145C34.5303 27.4932 34.5462 26.1637 34.5773 24.8372C34.6095 23.4379 34.5561 22.0392 34.4817 20.6423C34.4441 19.935 34.4037 19.2271 34.2172 18.531C33.9715 17.6173 33.4401 17.0215 32.5047 16.8069C32.1065 16.7154 31.7019 16.696 31.2984 16.6784C30.4416 16.6409 29.586 16.5916 28.7286 16.5611C27.0144 16.4996 25.2996 16.4661 23.5842 16.4708C21.5797 16.4767 19.5764 16.5304 17.5742 16.6321C16.952 16.6638 16.3263 16.6626 15.7099 16.7682C15.0132 16.8854 14.4379 17.2062 14.1013 17.8502C13.8484 18.3464 13.692 18.8861 13.6403 19.4406C13.4984 20.8012 13.4808 22.1694 13.4526 23.5358C13.4245 24.9023 13.4779 26.271 13.5488 27.6363C13.5852 28.3353 13.6245 29.0373 13.8168 29.7217C14.0672 30.6137 14.5792 31.2037 15.5175 31.3878C15.9765 31.4768 16.4411 31.5336 16.908 31.5579C18.0287 31.6166 19.1506 31.6799 20.2731 31.6957C21.6196 31.7168 22.9684 31.7866 24.1243 31.7596Z" fill="white"/>
<path d="M20.9516 23.859C20.9516 22.9206 20.9516 21.9823 20.9516 21.044C20.9516 20.4528 21.2677 20.0892 21.8448 19.9983C22.097 19.959 22.3204 20.057 22.5339 20.1743C23.6434 20.7803 24.7522 21.3874 25.8602 21.9958C26.4414 22.3142 27.0202 22.6409 27.6055 22.9511C27.9873 23.1552 28.2301 23.4555 28.2318 23.8941C28.2318 24.3234 27.9973 24.6255 27.6255 24.826C25.9142 25.7462 24.2058 26.6722 22.4922 27.587C21.8571 27.926 21.1891 27.6732 20.9886 27.0428C20.9543 26.9062 20.9416 26.7652 20.951 26.6247C20.9516 25.7034 20.9516 24.7809 20.9516 23.859ZM22.3914 23.8695C22.3914 24.4869 22.3914 25.1046 22.3914 25.7227C22.3914 25.9784 22.3914 25.9813 22.6089 25.8664C23.7631 25.2447 24.9164 24.6219 26.069 23.9979C26.1194 23.9704 26.2092 23.961 26.1951 23.8836C26.1881 23.8443 26.1206 23.8103 26.0749 23.7851C24.9121 23.1462 23.749 22.5076 22.5855 21.8691C22.4242 21.78 22.3867 21.8246 22.3878 21.9929C22.3931 22.618 22.3896 23.2438 22.3896 23.8695H22.3914Z" fill="white"/>
</g>
<defs>
<clipPath id="clip0_590_2701">
<rect width="24" height="18.2369" fill="white" transform="translate(12 15)"/>
</clipPath>
</defs>
</svg>
